<?xml version="1.0" standalone="no"?>
<!DOCTYPE svg PUBLIC "-//W3C//DTD SVG 20010904//EN"
 "http://www.w3.org/TR/2001/REC-SVG-20010904/DTD/svg10.dtd">
<svg version="1.0" xmlns="http://www.w3.org/2000/svg"
 width="768.000000pt" height="768.000000pt" viewBox="0 0 768.000000 768.000000"
 preserveAspectRatio="xMidYMid meet">
<metadata>
Created by potrace 1.14, written by Peter Selinger 2001-2017
</metadata>
<g transform="translate(0.000000,768.000000) scale(0.100000,-0.100000)"
fill="#000000" stroke="none">
<path d="M0 3840 l0 -3840 3840 0 3840 0 0 3840 0 3840 -3840 0 -3840 0 0
-3840z m1353 483 c20 -9 48 -29 62 -45 l25 -30 0 41 0 41 70 0 70 0 0 -150 0
-150 -70 0 c-66 0 -70 1 -70 23 -1 37 -36 103 -69 126 -48 34 -125 38 -181 9
-54 -28 -72 -59 -66 -113 6 -55 41 -82 185 -139 143 -57 201 -92 241 -147 40
-55 53 -109 48 -189 -11 -154 -119 -252 -278 -254 -90 -1 -140 15 -191 61
l-39 35 0 -41 0 -41 -70 0 -69 0 2 158 2 157 67 3 68 3 6 -40 c19 -120 151
-191 269 -146 54 20 73 45 81 106 5 36 1 50 -18 79 -33 49 -72 72 -208 125
-188 73 -249 141 -250 278 0 79 18 128 63 175 79 83 207 109 320 65z m2522 -2
c22 -10 55 -34 73 -55 l32 -37 0 51 0 50 70 0 70 0 -2 -182 -3 -183 -67 -3
-66 -3 -7 43 c-24 149 -125 230 -246 198 -94 -26 -151 -129 -164 -302 -14
-169 28 -318 108 -382 35 -28 46 -31 105 -31 44 1 78 7 100 18 39 21 85 82
108 145 10 26 19 49 20 51 2 2 30 -6 64 -19 68 -25 68 -27 24 -127 -48 -109
-118 -172 -226 -199 -162 -42 -320 31 -396 181 -38 76 -53 148 -59 275 -6 145
9 236 56 336 78 166 252 241 406 175z m-1923 -348 c4 -318 6 -363 22 -401 34
-79 116 -110 198 -74 36 16 50 29 69 68 24 48 24 53 27 407 l4 357 75 0 74 0
-3 -372 c-3 -363 -4 -375 -27 -431 -30 -77 -69 -120 -139 -154 -49 -24 -69
-28 -142 -28 -169 1 -268 84 -299 250 -7 35 -11 196 -11 397 l0 338 74 0 74 0
4 -357z m1176 323 c109 -50 157 -131 156 -261 -1 -79 -18 -129 -62 -177 -36
-40 -117 -88 -149 -88 -59 -1 -54 -11 184 -347 l45 -63 -100 0 -100 0 -53 85
c-208 330 -189 305 -232 305 l-39 0 3 -57 c1 -32 1 -120 1 -195 l-2 -138 -75
0 -75 0 0 486 0 486 218 -4 c215 -3 218 -4 280 -32z m1812 -146 l0 -180 -65 0
-65 0 0 110 0 110 -65 0 -65 0 0 -345 0 -345 75 0 75 0 0 -70 0 -70 -230 0
-230 0 0 70 0 70 75 0 75 0 0 345 0 345 -65 0 -65 0 0 -110 0 -111 -67 3 -68
3 -3 178 -2 177 345 0 345 0 0 -180z m800 110 l0 -70 -235 0 -235 0 0 -135 0
-135 185 0 186 0 -3 -67 -3 -68 -182 -3 -183 -2 0 -210 0 -210 -75 0 -75 0 0
485 0 485 310 0 310 0 0 -70z m868 -967 l-3 -68 -347 -3 -348 -2 0 70 0 70
350 0 351 0 -3 -67z"/>
<path d="M2780 4040 l0 -152 123 4 c92 3 130 8 155 21 96 52 96 202 0 254 -25
13 -63 18 -155 21 l-123 4 0 -152z"/>
</g>
</svg>
